<?xml version="1.0" encoding="UTF-8" standalone="no"?>
<!-- Created with Inkscape (http://www.inkscape.org/) -->

<svg
   width="16"
   height="16"
   viewBox="0 0 4.233333 4.2333335"
   version="1.1"
   id="svg830"
   xml:space="preserve"
   sodipodi:docname="edit.svg"
   inkscape:version="1.3.2 (091e20e, 2023-11-25, custom)"
   xmlns:inkscape="http://www.inkscape.org/namespaces/inkscape"
   xmlns:sodipodi="http://sodipodi.sourceforge.net/DTD/sodipodi-0.dtd"
   xmlns="http://www.w3.org/2000/svg"
   xmlns:svg="http://www.w3.org/2000/svg"
   xmlns:rdf="http://www.w3.org/1999/02/22-rdf-syntax-ns#"
   xmlns:cc="http://creativecommons.org/ns#"
   xmlns:dc="http://purl.org/dc/elements/1.1/"><sodipodi:namedview
     id="namedview1"
     pagecolor="#ffffff"
     bordercolor="#666666"
     borderopacity="1.0"
     inkscape:showpageshadow="2"
     inkscape:pageopacity="0.0"
     inkscape:pagecheckerboard="true"
     inkscape:deskcolor="#d1d1d1"
     showgrid="true"
     inkscape:zoom="25.375"
     inkscape:cx="-0.61083744"
     inkscape:cy="13.91133"
     inkscape:window-width="1920"
     inkscape:window-height="1017"
     inkscape:window-x="-8"
     inkscape:window-y="-8"
     inkscape:window-maximized="1"
     inkscape:current-layer="layer1"><inkscape:grid
       id="grid1"
       units="px"
       originx="0"
       originy="0"
       spacingx="0.26458333"
       spacingy="0.26458333"
       empcolor="#ff3f3f"
       empopacity="0.25098039"
       color="#3f3fff"
       opacity="0.1254902"
       empspacing="4"
       dotted="false"
       gridanglex="30"
       gridanglez="30"
       visible="true" /></sodipodi:namedview><defs
     id="defs824" /><metadata
     id="metadata827"><rdf:RDF><cc:Work
         rdf:about=""><dc:format>image/svg+xml</dc:format><dc:type
           rdf:resource="http://purl.org/dc/dcmitype/StillImage" /></cc:Work></rdf:RDF></metadata><g
     inkscape:groupmode="layer"
     id="layer1"
     inkscape:label="Layer 1"><path
       id="rect1"
       style="fill:#ffffff;fill-opacity:1;stroke-width:26;stroke-linecap:square;paint-order:markers fill stroke"
       d="M 3.4252805,4.6066873 2.3558568,5.0270828 0.534718,7.6424938 C 0.43382719,7.7873873 0.48914559,7.9991102 0.52679458,8.0253256 L 1.2245781,8.5111997 c 0.037261,0.025945 0.2655377,-0.0099 0.3563043,-0.1402503 L 3.4020212,5.7555382 Z"
       sodipodi:nodetypes="ccsssscc" /><path
       id="path4"
       style="fill:#ffffff;fill-opacity:1;stroke-width:26;stroke-linecap:square;paint-order:markers fill stroke"
       d="M -2.82205,0.26458335 -3.3512166,1.0583332 v 2.6458334 c 0,0.1465788 0.1381297,0.2645833 0.1762166,0.2645833 h 0.7059001 c 0.037694,0 0.1762166,-0.1327135 0.1762166,-0.2645833 V 1.0583332 Z"
       sodipodi:nodetypes="ccsssscc" /><path
       id="path5"
       style="fill:#ffffff;fill-opacity:1;stroke-width:26;stroke-linecap:square;paint-order:markers fill stroke"
       d="m -2.4696168,4.2333327 c -0.038087,0 -0.1762166,0.1348628 -0.1762166,0.302381 V 4.7624994 H -1.5875 V 4.5357137 c 0,-0.1507079 -0.138523,-0.302381 -0.1762167,-0.302381 z M -2.6458334,4.9136898 V 7.4839277 H -1.5875 V 4.9136898 Z m 0.043925,2.7214284 0.2206584,0.3779761 h 0.5291667 L -1.631425,7.6351182 Z m 0.3090251,0.5291666 0.1762166,0.302381 0.1762167,-0.302381 z" /><path
       id="path7"
       style="fill:#ffffff;fill-opacity:1;stroke-width:26;stroke-linecap:square;paint-order:markers fill stroke"
       d="M -1.0583334,3.9687499 -1.5875,3.1750001 V 0.52916665 c 0,-0.1465788 0.1381297,-0.2645833 0.1762166,-0.2645833 h 0.70590011 c 0.037694,0 0.1762166,0.1327135 0.1762166,0.2645833 V 3.1750001 Z"
       sodipodi:nodetypes="ccsssscc" /><path
       id="path8"
       style="fill:#ffffff;fill-opacity:1;stroke-width:26;stroke-linecap:square;paint-order:markers fill stroke"
       d="M 1.8520833,0 C 1.8139964,0 1.5875,0.09706502 1.5875,0.26458333 V 0.52916666 H 2.6458333 V 0.26458333 C 2.6458333,0.11387528 2.4189438,0 2.38125,0 Z M 1.5875,0.79374998 l 0,2.11666632 h 1.0583333 l 0,-2.11666632 z m 0,2.38124972 0.5291666,1.0583335 0.5291667,-1.0583335 z"
       sodipodi:nodetypes="ssccsssccccccccc" /></g></svg>
