<?xml version="1.0" encoding="UTF-8" standalone="no"?>
<!-- Created with Inkscape (http://www.inkscape.org/) -->

<svg
   width="16"
   height="16"
   viewBox="0 0 4.233333 4.2333335"
   version="1.1"
   id="svg830"
   xmlns="http://www.w3.org/2000/svg"
   xmlns:svg="http://www.w3.org/2000/svg"
   xmlns:rdf="http://www.w3.org/1999/02/22-rdf-syntax-ns#"
   xmlns:cc="http://creativecommons.org/ns#"
   xmlns:dc="http://purl.org/dc/elements/1.1/">
  <defs
     id="defs824" />
  <metadata
     id="metadata827">
    <rdf:RDF>
      <cc:Work
         rdf:about="">
        <dc:format>image/svg+xml</dc:format>
        <dc:type
           rdf:resource="http://purl.org/dc/dcmitype/StillImage" />
      </cc:Work>
    </rdf:RDF>
  </metadata>
  <g
     id="layer4"
     style="display:inline">
    <g
       id="g12625">
      <path
         id="path12540"
         style="fill:#ffffff;fill-opacity:1;stroke:none;stroke-width:0.957135;stroke-linecap:round;stroke-linejoin:round;stroke-dasharray:none;stroke-opacity:1;paint-order:markers fill stroke"
         d="m 2.104,1.6687807 c 1.1200328,-0.4884862 0.5600164,-0.2442431 0,0 z m 0,0 c 0,0.7081815 -0.5850315,1.2822762 -1.30670474,1.2822762 0.72167324,0 1.30670484,0.5740947 1.30670484,1.2822763 0,-0.7081816 0.585032,-1.2822763 1.3067051,-1.2822763 C 2.689032,2.9510571 2.104,2.3769625 2.104,1.6687807 Z m 1.1200328,2.0150056 c 0.3733443,-1.8318233 0.1866723,-0.9159116 0,0 z M 2.1040001,4.2333332 c 1.1200328,-2.1981877 0.5600164,-1.0990941 0,0 z M 0.79729526,2.9510569 c 1.99116934,-1.343337 0.99558464,-0.6716686 0,0 z" />
      <path
         id="path12542"
         style="fill:#ffffff;fill-opacity:1;stroke:none;stroke-width:0.554032;stroke-linecap:round;stroke-linejoin:round;stroke-dasharray:none;stroke-opacity:1;paint-order:markers fill stroke"
         d="m 1.3142415,0.68644973 c 0.6729213,-0.27242227 0.3364606,-0.13621114 0,0 z m 0,0 c 0,0.39494337 -0.35148992,0.71510847 -0.78507484,0.71510847 0.43358492,0 0.78507494,0.320165 0.78507494,0.7151084 0,-0.3949434 0.3514902,-0.7151084 0.7850751,-0.7151084 -0.433585,1e-7 -0.7850752,-0.320165 -0.7850752,-0.71510847 z M 1.9871628,1.8101915 c 0.2243073,-1.02158339 0.1121535,-0.5107918 0,0 z M 1.3142416,2.1166666 c 0.6729213,-1.22590007 0.3364607,-0.6129502 0,0 z M 0.52916666,1.4015582 c 1.19630464,-0.74916127 0.59815234,-0.3745808 0,0 z" />
      <path
         id="path12546"
         style="fill:#ffffff;fill-opacity:1;stroke:none;stroke-width:0.554032;stroke-linecap:round;stroke-linejoin:round;stroke-dasharray:none;stroke-opacity:1;paint-order:markers fill stroke"
         d="m 3.1663248,0.1572831 c 0.6729213,-0.27242227 0.3364606,-0.13621114 0,0 z m 0,0 c 0,0.39494337 -0.3514899,0.71510847 -0.7850748,0.71510847 0.4335849,0 0.7850749,0.32016503 0.7850749,0.71510843 0,-0.3949434 0.3514902,-0.71510843 0.7850751,-0.71510843 -0.433585,10e-8 -0.7850752,-0.320165 -0.7850752,-0.71510847 z m 0.6729213,1.1237418 c 0.2243073,-1.02158342 0.1121535,-0.51079183 0,0 z M 3.1663249,1.5875 c 0.6729213,-1.2259001 0.3364607,-0.61295023 0,0 z M 2.38125,0.87239157 c 1.1963046,-0.74916127 0.5981523,-0.3745808 0,0 z" />
    </g>
  </g>
</svg>
