<?xml version="1.0" encoding="UTF-8" standalone="no"?>
<!-- Created with Inkscape (http://www.inkscape.org/) -->

<svg
   width="16"
   height="16"
   viewBox="0 0 4.233333 4.2333335"
   version="1.1"
   id="svg830"
   xml:space="preserve"
   xmlns="http://www.w3.org/2000/svg"
   xmlns:svg="http://www.w3.org/2000/svg"
   xmlns:rdf="http://www.w3.org/1999/02/22-rdf-syntax-ns#"
   xmlns:cc="http://creativecommons.org/ns#"
   xmlns:dc="http://purl.org/dc/elements/1.1/"><defs
     id="defs824" /><metadata
     id="metadata827"><rdf:RDF><cc:Work
         rdf:about=""><dc:format>image/svg+xml</dc:format><dc:type
           rdf:resource="http://purl.org/dc/dcmitype/StillImage" /></cc:Work></rdf:RDF></metadata><g
     id="layer8"
     style="display:inline"><g
       id="g19133"><g
         id="path13266"><g
           id="g19115"><g
             id="path19117"><path
               style="color:#000000;fill:#ffffff;fill-rule:evenodd;stroke-width:0.128952pt;-inkscape-stroke:none"
               d="M 2.8607108,1.0545161 1.7485967,1.7049911 1.7419812,0.415486 Z"
               id="path19121" /><path
               style="color:#000000;fill:#ffffff;fill-rule:evenodd;-inkscape-stroke:none"
               d="M 1.6542969,0.26757813 1.6640625,1.8535156 3.0332031,1.0527344 2.9042969,0.98046875 Z M 1.828125,0.56445312 2.6894531,1.0546875 1.8339844,1.5566406 Z"
               id="path19123" /></g></g><path
           style="color:#000000;fill:#ffffff;stroke-linecap:round;stroke-linejoin:round;-inkscape-stroke:none;paint-order:markers fill stroke"
           d="M 2.1152344,0.79296875 C 1.242751,0.79744486 0.53412719,1.51404 0.53710937,2.3867188 0.54009156,3.2593975 1.2544595,3.970242 2.1269531,3.96875 2.9994467,3.967258 3.7109375,3.2535433 3.7109375,2.3808594 A 0.2645835,0.2645835 0 0 0 3.4453125,2.1171875 0.2645835,0.2645835 0 0 0 3.1816406,2.3808594 c 0,0.5871424 -0.4699311,1.0575904 -1.0566406,1.0585937 -0.5867095,10e-4 -1.0585405,-0.4675484 -1.0605469,-1.0546875 -0.00201,-0.587139 0.4660318,-1.05949 1.0527344,-1.0625 A 0.2645835,0.2645835 0 0 0 2.3808594,1.0566406 0.2645835,0.2645835 0 0 0 2.1152344,0.79296875 Z"
           id="path19125" /></g></g></g></svg>
