<?xml version="1.0" encoding="UTF-8" standalone="no"?>
<!-- Created with Inkscape (http://www.inkscape.org/) -->

<svg
   width="16"
   height="16"
   viewBox="0 0 4.233333 4.2333335"
   version="1.1"
   id="svg830"
   xmlns="http://www.w3.org/2000/svg"
   xmlns:svg="http://www.w3.org/2000/svg"
   xmlns:rdf="http://www.w3.org/1999/02/22-rdf-syntax-ns#"
   xmlns:cc="http://creativecommons.org/ns#"
   xmlns:dc="http://purl.org/dc/elements/1.1/">
  <defs
     id="defs824" />
  <metadata
     id="metadata827">
    <rdf:RDF>
      <cc:Work
         rdf:about="">
        <dc:format>image/svg+xml</dc:format>
        <dc:type
           rdf:resource="http://purl.org/dc/dcmitype/StillImage" />
      </cc:Work>
    </rdf:RDF>
  </metadata>
  <g
     id="layer3"
     style="display:inline">
    <path
       id="path12441"
       style="fill:#ffffff;fill-opacity:1;stroke:none;stroke-width:1.36948;stroke-linecap:round;stroke-linejoin:round;stroke-dasharray:none;stroke-opacity:1;paint-order:markers fill stroke"
       d="m 2.1166666,0.26458333 c -0.089585,6.312e-5 -0.1790483,0.006626 -0.2676839,0.019637 v 5.1677e-4 5.1676e-4 5.1676e-4 5.1677e-4 l 5.168e-4,5.1676e-4 v 5.1677e-4 5.1676e-4 5.1677e-4 5.1676e-4 5.1677e-4 5.1676e-4 5.1676e-4 5.1677e-4 c 1.731e-4,5.1647e-4 3.454e-4,0.001033 5.167e-4,0.00155 v 5.1677e-4 5.1676e-4 5.1676e-4 5.1677e-4 5.1676e-4 5.1677e-4 5.1676e-4 5.1677e-4 l 5.168e-4,5.1676e-4 v 5.1676e-4 5.1677e-4 5.1676e-4 5.1677e-4 5.1676e-4 5.1677e-4 5.1676e-4 5.1676e-4 5.1677e-4 5.1676e-4 5.1677e-4 c 1.732e-4,5.1647e-4 3.454e-4,0.001033 5.168e-4,0.00155 v 5.1676e-4 5.1677e-4 5.1676e-4 5.1677e-4 5.1676e-4 5.1677e-4 5.1676e-4 5.1676e-4 5.1677e-4 5.1676e-4 5.1677e-4 5.1676e-4 l 5.167e-4,5.1677e-4 v 5.1676e-4 5.1676e-4 5.1677e-4 5.1676e-4 5.1677e-4 5.1676e-4 5.1677e-4 5.1676e-4 5.1677e-4 5.1676e-4 5.1676e-4 5.1677e-4 5.1676e-4 5.1677e-4 5.1676e-4 5.1677e-4 5.1676e-4 5.1676e-4 5.1677e-4 5.1676e-4 5.1677e-4 5.1676e-4 l 5.168e-4,5.1677e-4 v 5.1676e-4 5.1676e-4 5.1677e-4 5.1676e-4 5.1677e-4 5.1676e-4 5.1677e-4 5.1676e-4 5.1676e-4 5.1677e-4 5.1676e-4 5.1677e-4 5.1676e-4 5.1677e-4 5.1676e-4 5.1676e-4 5.1677e-4 5.1676e-4 5.1677e-4 5.1676e-4 5.1677e-4 5.1676e-4 5.1676e-4 5.1677e-4 5.1676e-4 5.1677e-4 5.1676e-4 5.1677e-4 5.1676e-4 5.1676e-4 5.1677e-4 5.1676e-4 5.1677e-4 5.1676e-4 C 1.852061,0.6016804 1.6403767,0.81336472 1.379244,0.81338703 1.2346606,0.81307491 1.0981648,0.74663552 1.0087239,0.63303628 0.86557772,0.74011404 0.73868791,0.86735199 0.63200275,1.010791 0.75540233,1.097691 0.82883947,1.2391685 0.82888996,1.390096 0.82885927,1.6463734 0.62111303,1.8541197 0.3648356,1.8541504 0.337962,1.8538905 0.3111618,1.8513004 0.2847371,1.8464004 0.2714279,1.9358764 0.2646919,2.0262076 0.2645833,2.1166681 c 1.0863e-4,0.090461 0.006845,0.1807916 0.0201538,0.2702678 0.0264247,-0.0049 0.0532249,-0.00749 0.0800985,-0.00775 0.25627739,3.07e-5 0.46402361,0.2077769 0.46405436,0.4640543 C 0.8288395,2.9941677 0.75540236,3.1356451 0.63200275,3.2225453 0.73868791,3.3659843 0.86557773,3.4932223 1.0087239,3.6003 1.0981649,3.4867007 1.2346606,3.4202613 1.379244,3.4199492 c 0.2611327,2.23e-5 0.472817,0.2117067 0.4728393,0.4728394 v 5.167e-4 5.168e-4 5.168e-4 5.167e-4 5.168e-4 5.168e-4 5.167e-4 5.168e-4 5.167e-4 5.168e-4 5.168e-4 5.167e-4 5.168e-4 5.168e-4 5.167e-4 5.168e-4 5.168e-4 5.167e-4 5.168e-4 5.168e-4 5.167e-4 5.168e-4 5.167e-4 5.168e-4 5.168e-4 5.167e-4 5.168e-4 5.168e-4 5.167e-4 5.168e-4 5.168e-4 5.167e-4 5.168e-4 5.168e-4 l -5.168e-4,5.167e-4 v 5.168e-4 5.167e-4 5.168e-4 5.168e-4 5.167e-4 5.168e-4 5.168e-4 5.167e-4 5.168e-4 5.168e-4 5.167e-4 5.168e-4 5.168e-4 5.167e-4 5.168e-4 5.167e-4 5.168e-4 5.168e-4 5.167e-4 5.168e-4 5.168e-4 5.167e-4 l -5.167e-4,5.168e-4 v 5.168e-4 5.167e-4 5.168e-4 5.168e-4 5.167e-4 5.168e-4 5.167e-4 5.168e-4 5.168e-4 5.167e-4 5.168e-4 5.168e-4 c -1.714e-4,5.171e-4 -3.436e-4,0.00103 -5.168e-4,0.00155 v 5.167e-4 5.168e-4 5.168e-4 5.167e-4 5.168e-4 5.167e-4 5.168e-4 5.168e-4 5.167e-4 5.168e-4 5.168e-4 l -5.168e-4,5.167e-4 v 5.168e-4 5.168e-4 5.167e-4 5.168e-4 5.168e-4 5.167e-4 5.168e-4 5.167e-4 c -1.713e-4,5.171e-4 -3.436e-4,0.00103 -5.167e-4,0.00155 v 5.168e-4 5.168e-4 5.167e-4 5.168e-4 5.168e-4 5.167e-4 5.168e-4 5.168e-4 l -5.168e-4,5.167e-4 v 5.168e-4 5.167e-4 5.168e-4 5.168e-4 c 0.088636,0.013011 0.1780984,0.019574 0.2676839,0.019637 0.089586,-6.31e-5 0.1790483,-0.00663 0.2676839,-0.019637 v -5.168e-4 c -8e-7,-5.168e-4 -8e-7,-0.00103 0,-0.00155 l -5.167e-4,-5.167e-4 c -8e-7,-5.168e-4 -8e-7,-0.00103 0,-0.00155 V 3.944462 c -8e-7,-5.168e-4 -8e-7,-0.00103 0,-0.00155 v -5.168e-4 c -1.732e-4,-5.165e-4 -3.454e-4,-0.00103 -5.168e-4,-0.00155 v -5.167e-4 c -8e-7,-5.168e-4 -8e-7,-0.00103 0,-0.00155 v -5.168e-4 c -8e-7,-5.168e-4 -8e-7,-0.00103 0,-0.00155 L 2.3828002,3.936195 c -8e-7,-5.168e-4 -8e-7,-0.00103 0,-0.00155 -8e-7,-5.168e-4 -8e-7,-0.00103 0,-0.00155 v -5.168e-4 c -8e-7,-5.168e-4 -8e-7,-0.00103 0,-0.00155 v -5.167e-4 c -1.731e-4,-5.165e-4 -3.454e-4,-0.00103 -5.167e-4,-0.00155 v -5.168e-4 c -8e-7,-5.168e-4 -8e-7,-0.00103 0,-0.00155 v -5.168e-4 c -8e-7,-5.167e-4 -8e-7,-0.00103 0,-0.00155 v -5.168e-4 c -8e-7,-5.168e-4 -8e-7,-0.00103 0,-0.00155 l -5.168e-4,-5.168e-4 c -8e-7,-5.168e-4 -8e-7,-0.00103 0,-0.00155 v -5.167e-4 c -8e-7,-5.168e-4 -8e-7,-0.00103 0,-0.00155 V 3.918107 c -8e-7,-5.168e-4 -8e-7,-0.00103 0,-0.00155 -8e-7,-5.168e-4 -8e-7,-0.00103 0,-0.00155 v -5.167e-4 c -8e-7,-5.168e-4 -8e-7,-0.00103 0,-0.00155 v -5.168e-4 c -8e-7,-5.168e-4 -8e-7,-0.00103 0,-0.00155 L 2.38125,3.9103556 c -8e-7,-5.168e-4 -8e-7,-0.00103 0,-0.00155 v -5.168e-4 c -8e-7,-5.168e-4 -8e-7,-0.00103 0,-0.00155 V 3.906222 c -8e-7,-5.168e-4 -8e-7,-0.00103 0,-0.00155 v -5.167e-4 c -8e-7,-5.168e-4 -8e-7,-0.00103 0,-0.00155 v -5.168e-4 c -8e-7,-5.168e-4 -8e-7,-0.00103 0,-0.00155 -8e-7,-5.168e-4 -8e-7,-0.00103 0,-0.00155 V 3.89847 c -8e-7,-5.168e-4 -8e-7,-0.00103 0,-0.00155 v -5.168e-4 c -8e-7,-5.168e-4 -8e-7,-0.00103 0,-0.00155 v -5.167e-4 c -8e-7,-5.168e-4 -8e-7,-0.00103 0,-0.00155 2.23e-5,-0.2611327 0.2117066,-0.4728171 0.4728393,-0.4728394 0.1445834,3.122e-4 0.2810792,0.066752 0.37052,0.1803508 C 3.3677555,3.4932193 3.4946453,3.3659813 3.6013305,3.2225423 3.4779309,3.1356421 3.4044938,2.9941647 3.4044433,2.8432372 3.404474,2.5869598 3.6122202,2.3792136 3.8684976,2.3791829 c 0.026874,2.599e-4 0.053674,0.00285 0.080099,0.00775 0.013309,-0.089476 0.020045,-0.1798072 0.020154,-0.2702678 -1.086e-4,-0.09046 -0.00684,-0.1807915 -0.020154,-0.2702677 -0.026425,0.0049 -0.053225,0.00749 -0.080099,0.00775 C 3.6122202,1.8541197 3.404474,1.6463734 3.4044433,1.390096 3.4044938,1.2391685 3.4779309,1.0976912 3.6013305,1.010791 3.4946453,0.86735198 3.3677555,0.74011403 3.2246093,0.63303628 3.1351685,0.7466355 2.9986727,0.81307488 2.8540893,0.81338703 2.5929566,0.81336472 2.3812723,0.6016804 2.38125,0.34054768 c -8e-7,-5.1676e-4 -8e-7,-0.001034 0,-0.00155 v -5.1677e-4 c -8e-7,-5.1676e-4 -8e-7,-0.001034 0,-0.00155 v -5.1676e-4 c -8e-7,-5.1677e-4 -8e-7,-0.001034 0,-0.00155 v -5.1676e-4 c -8e-7,-5.1676e-4 -8e-7,-0.001034 0,-0.00155 -8e-7,-5.1677e-4 -8e-7,-0.001034 0,-0.00155 v -5.1676e-4 c -8e-7,-5.1676e-4 -8e-7,-0.001034 0,-0.00155 V 0.3286621 c -8e-7,-5.1676e-4 -8e-7,-0.001034 0,-0.00155 v -5.1676e-4 c -8e-7,-5.1677e-4 -8e-7,-0.001034 0,-0.00155 v -5.1676e-4 c -8e-7,-5.1676e-4 -8e-7,-0.001034 0,-0.00155 l 5.167e-4,-5.1677e-4 c -8e-7,-5.1676e-4 -8e-7,-0.001034 0,-0.00155 v -5.1677e-4 c -8e-7,-5.1676e-4 -8e-7,-0.001034 0,-0.00155 v -5.1676e-4 c -8e-7,-5.1677e-4 -8e-7,-0.001034 0,-0.00155 -8e-7,-5.1676e-4 -8e-7,-0.001034 0,-0.00155 v -5.1676e-4 c -8e-7,-5.1677e-4 -8e-7,-0.001034 0,-0.00155 v -5.1676e-4 c -8e-7,-5.1676e-4 -8e-7,-0.001034 0,-0.00155 l 5.168e-4,-5.1677e-4 c -8e-7,-5.1676e-4 -8e-7,-0.001034 0,-0.00155 v -5.1677e-4 c -8e-7,-5.1676e-4 -8e-7,-0.001034 0,-0.00155 v -5.1676e-4 c -8e-7,-5.1677e-4 -8e-7,-0.001034 0,-0.00155 V 0.3043777 c 1.713e-4,-5.1706e-4 3.436e-4,-0.001034 5.167e-4,-0.00155 v -5.1677e-4 c -8e-7,-5.1676e-4 -8e-7,-0.001034 0,-0.00155 v -5.1676e-4 c -8e-7,-5.1677e-4 -8e-7,-0.001034 0,-0.00155 -8e-7,-5.1676e-4 -8e-7,-0.001034 0,-0.00155 l 5.168e-4,-5.1676e-4 c -8e-7,-5.1677e-4 -8e-7,-0.001034 0,-0.00155 v -5.1676e-4 c -8e-7,-5.1676e-4 -8e-7,-0.001034 0,-0.00155 V 0.2924886 c 1.714e-4,-5.1706e-4 3.436e-4,-0.001034 5.168e-4,-0.00155 v -5.1677e-4 c -8e-7,-5.1676e-4 -8e-7,-0.001034 0,-0.00155 v -5.1676e-4 c -8e-7,-5.1677e-4 -8e-7,-0.001034 0,-0.00155 l 5.167e-4,-5.1676e-4 c -8e-7,-5.1676e-4 -8e-7,-0.001034 0,-0.00155 v -5.1677e-4 c -0.088636,-0.013011 -0.1780984,-0.0195739 -0.2676839,-0.019637 z m 0,1.05833327 c 0.438376,0 0.79375,0.355374 0.79375,0.79375 0,0.438376 -0.355374,0.79375 -0.79375,0.79375 -0.438376,0 -0.79375,-0.355374 -0.79375,-0.79375 0,-0.438376 0.355374,-0.79375 0.79375,-0.79375 z" />
  </g>
</svg>
